<?xml version="1.0" encoding="UTF-8"?>
<svg xmlns="http://www.w3.org/2000/svg" xmlns:xlink="http://www.w3.org/1999/xlink" width="117" height="93" viewBox="0 0 117 93">
    <title>
        Group 4
    </title>
    <desc>
        Created with Sketch.
    </desc>
    <defs>
        <rect id="path-1" width="102.468" height="72.359" x="0" y="0" rx="2"/>
        <rect id="path-3" width="102.468" height="72.359" x="0" y="0" rx="2"/>
    </defs>
    <g id="CAT-onboarding-and-empty-state-Illustrations" fill="none" fill-rule="evenodd" stroke="none" stroke-width="1">
        <g id="Monocrome-vs-a-pop-of-color" transform="translate(-120 -220)">
            <g id="Group-4" transform="translate(121 221)">
                <rect id="Second-image-Copy" width="98" height="69" x="3" y="0" fill="#C8CCD1" stroke="#A2A9B1" stroke-width="2" rx="2"/>
                <g id="Group-Copy" transform="translate(0 4)">
                    <g id="Illustration">
                        <mask id="mask-2" fill="#fff">
                            <use xlink:href="#path-1"/>
                        </mask>
                        <use id="Mask" fill="#F5F5F5" xlink:href="#path-1"/>
                        <g mask="url(#mask-2)">
                            <g transform="translate(0 8.303)">
                                <circle id="Oval" cx="16.149" cy="9" r="9" fill="#A2A9B1"/>
                                <path id="Path-3" fill="#A2A9B1" d="M68.393683,27.8758621 C68.393683,27.8758621 85.7254356,39.0649357 89.6248821,34.9482558 C93.5243286,30.8315758 89.6248821,40.9241379 89.6248821,40.9241379 L55.4042553,40.9241379"/>
                                <path id="Path-4" fill="#A2A9B1" d="M0,34.4 C0,34.4 13.8475762,43.7971231 33.1455841,43.7971231 C52.443592,43.7971231 37.867196,49.8206897 37.867196,49.8206897 L0.0421155617,49.8206897"/>
                                <path id="Path-2" fill="#C8CCD1" d="M68.533306,32.2827623 C59.0591686,50.0531549 102.468085,28.1093169 102.468085,28.1093169 L102.468085,49.8206897 L102.468085,71.1724138 L0,71.1724138 L7.11015171e-16,49.8206897 C7.11015171e-16,49.8206897 78.0074435,14.5123697 68.533306,32.2827623 Z"/>
                            </g>
                        </g>
                    </g>
                    <mask id="mask-4" fill="#fff">
                        <use xlink:href="#path-3"/>
                    </mask>
                    <use id="Mask" stroke="#A2A9B1" stroke-width="2" xlink:href="#path-3"/>
                </g>
                <g id="Group-5" stroke-width="2" transform="translate(79 55)">
                    <circle id="Oval-2-Copy" cx="18" cy="18" r="18" fill="#C8CCD1" stroke="#A2A9B1"/>
                    <path id="Shape" fill="#FFF" fill-rule="nonzero" stroke="#FFF" d="M14.6696048 22.6246739L9.68979244 17.6511368 8 19.3387999 14.6696048 26 29 11.6876631 27.3102076 10z"/>
                </g>
            </g>
        </g>
    </g>
</svg>
