<svg xmlns="http://www.w3.org/2000/svg" width="512" height="512" viewBox="0 0 512 512"><path d="M479.97 32.18c-21.72 21.21-42.89 43-64.52 64.3-1.05 1.23-2.26-.16-3.09-.85-24.51-23.98-54.58-42.28-87.22-52.84-37.6-12.16-78.45-14.07-117.03-5.59C139.44 51.87 79.3 101.26 51.67 165.81c.032.014.063.025.094.04-2.3 4.536-3.605 9.665-3.605 15.1 0 18.474 14.97 33.45 33.45 33.45 15.83 0 29.08-11.002 32.55-25.773 19.75-41.98 58.83-74.445 103.96-85.527 52.2-13.17 111.37 1.33 149.4 40.04-22.03 21.83-44.39 43.34-66.33 65.26 59.52-.32 119.06-.14 178.59-.09.5-58.7.14-117.42.18-176.13zM431.61 297.5c-14.62 0-27.042 9.383-31.592 22.453l-.027-.012c-19.11 42.59-57.57 76.22-102.84 88.18-52.79 14.32-113.45.3-152.17-39.05 21.92-21.76 44.37-43.01 66.19-64.87-59.7.05-119.41.03-179.11.01-.14 58.6-.16 117.19.01 175.79 21.92-21.91 43.75-43.91 65.79-65.7 14.11 13.79 29.76 26.07 46.92 35.87 54.74 31.97 123.4 38.61 183.3 17.89 57.48-19.29 106.07-63.17 131.21-118.31 3.65-5.35 5.78-11.82 5.78-18.79 0-18.47-14.97-33.45-33.45-33.45z"/></svg>